:SAMPLES-PER-SECOND 30
:FULLY-SPECIFIED
:DEGREES
116
root  -40.9738 39.2803 -2.0159 11.201 -86.5216 -18.4559
RightUpLeg  -17.523 -12.7018 0.330242
RightLeg  17.9148 -0.559289 2.30813
RightFoot  7.68134 0.872991 -4.88929
RightToes  1.74622e-010 0 -3.6325e-017
Spine  5.43721 -3.56517 6.51524
Spine1  8.11008 -3.42254 2.03029
HEad  -8.11852 1.40824 -3.66057
LeftShoulder1  8.82463 -12.1228 -49.2959
LeftArm  -2.63919 15.9374 -25.4652
LeftForeArm  26.1134 -26.6751 -4.34648
LeftHand  -0.244104 0.0205437 5.32207
RightShoulder  6.00724 9.49623 40.068
RightArm  7.7206 -18.4576 32.0928
RightForeArm  -3.30209 17.6189 6.53441
RightHand  -1.17728 2.84105 -16.7257
LeftUpLeg  -1.9452 4.92209 4.54472
LeftLeg  57.3617 3.68703 6.68557
LeftFoot  2.23321 0.961402 -8.1035
LeftToes  -1.18267e-011 5.39559e-011 -6.19194e-012
117
root  -41.9102 39.6599 -2.20971 3.66128 -86.3639 -10.3892
RightUpLeg  -15.6456 -12.1656 -0.608139
RightLeg  16.5864 -1.22863 3.07302
RightFoot  7.01935 0.85546 -4.9878
RightToes  1.74622e-010 0 -3.6325e-017
Spine  5.89634 -3.04048 6.83079
Spine1  7.47256 -2.73099 1.32696
HEad  -9.34757 0.462315 -2.70419
LeftShoulder1  9.04372 -12.3968 -49.6508
LeftArm  0.687294 16.1221 -26.117
LeftForeArm  23.9968 -20.5382 -3.9111
LeftHand  -0.244104 0.0205437 5.32207
RightShoulder  5.94037 9.36766 40.0126
RightArm  8.93784 -16.3666 32.7815
RightForeArm  -7.11059 19.4773 6.0249
RightHand  -1.36501 3.55163 -17.8469
LeftUpLeg  -6.91068 5.75038 3.90359
LeftLeg  60.9551 4.2476 8.78991
LeftFoot  0.202243 0.596649 -5.91244
LeftToes  -1.18267e-011 5.39559e-011 -6.19194e-012
118
root  -42.8113 40.023 -2.38691 -4.90001 -86.9638 -1.05898
RightUpLeg  -13.874 -11.1948 -1.43939
RightLeg  14.7251 -1.77842 3.86868
RightFoot  6.18133 0.793163 -4.86539
RightToes  1.74622e-010 0 -3.6325e-017
Spine  5.48533 -2.26471 7.12736
Spine1  7.65196 -1.7888 0.238131
HEad  -10.6943 -0.210537 -2.24302
LeftShoulder1  9.20433 -12.5908 -49.9238
LeftArm  -1.13963 17.3462 -26.495
LeftForeArm  27.225 -16.8661 -4.90293
LeftHand  -0.244104 0.0205437 5.32207
RightShoulder  5.8492 9.25902 39.7077
RightArm  10.1418 -13.853 33.5833
RightForeArm  -9.28869 20.3169 5.88876
RightHand  -1.47344 3.86407 -18.6
LeftUpLeg  -10.9645 7.54855 3.23686
LeftLeg  60.8048 4.24732 8.77546
LeftFoot  -2.13497 0.442536 -5.36036
LeftToes  -1.18267e-011 5.39559e-011 -6.19194e-012
119
root  -43.6335 40.3115 -2.55585 -17.4088 -87.3349 12.2094
RightUpLeg  -12.3881 -9.98067 -2.21669
RightLeg  13.0382 -2.7108 4.42714
RightFoot  5.59975 0.766513 -4.88346
RightToes  1.74622e-010 0 -3.6325e-017
Spine  5.10118 -1.62102 6.94945
Spine1  7.86713 -1.0922 -0.290307
HEad  -11.9067 -0.628168 -2.21265
LeftShoulder1  9.29128 -12.7327 -49.9556
LeftArm  -2.86253 19.4567 -27.0136
LeftForeArm  28.4582 -15.2123 -5.30522
LeftHand  -0.244104 0.0205437 5.32207
RightShoulder  5.7876 9.18414 39.5035
RightArm  11.435 -11.7186 34.0838
RightForeArm  -9.78747 21.1903 5.69695
RightHand  -1.46773 3.77039 -18.7072
LeftUpLeg  -14.1552 9.18748 2.52324
LeftLeg  57.5782 4.28253 7.76362
LeftFoot  -3.03945 0.431334 -5.68956
LeftToes  -1.18267e-011 5.39559e-011 -6.19194e-012
120
root  -44.3867 40.5788 -2.70862 -34.3264 -87.3124 29.6568
RightUpLeg  -10.9671 -9.30043 -2.97649
RightLeg  11.5321 -3.03672 4.75485
RightFoot  5.53717 0.812862 -5.21574
RightToes  1.74622e-010 0 -3.6325e-017
Spine  5.24825 -1.12017 6.43394
Spine1  7.66656 -0.558599 -0.691245
HEad  -12.974 -0.961482 -2.26136
LeftShoulder1  9.40211 -12.8947 -50.0517
LeftArm  -3.66195 21.7673 -27.3006
LeftForeArm  27.311 -14.5722 -5.44168
LeftHand  -0.244104 0.0205437 5.32207
RightShoulder  5.78161 9.11255 39.7043
RightArm  11.9971 -10.4506 34.0562
RightForeArm  -9.3064 22.4761 5.47278
RightHand  -1.42902 3.60242 -18.556
LeftUpLeg  -15.825 10.6092 1.61218
LeftLeg  51.3443 4.7224 6.75862
LeftFoot  -3.95986 0.387452 -5.62357
LeftToes  -1.18267e-011 5.39559e-011 -6.19194e-012
121
root  -45.09 40.8169 -2.82995 -51.7059 -87.1495 47.3522
RightUpLeg  -9.56274 -9.21846 -3.61241
RightLeg  10.3213 -2.60943 4.91761
RightFoot  5.28362 0.846098 -5.53551
RightToes  1.74622e-010 0 -3.6325e-017
Spine  5.54507 -0.694127 5.96015
Spine1  7.5577 -0.0653523 -1.20112
HEad  -14.0659 -1.1231 -2.26581
LeftShoulder1  9.55886 -13.0637 -50.3655
LeftArm  -4.18567 23.7691 -27.3276
LeftForeArm  25.9343 -14.3931 -5.44663
LeftHand  -0.244104 0.0205437 5.32207
RightShoulder  5.81024 9.0811 40.0284
RightArm  11.9773 -9.76178 33.8171
RightForeArm  -9.33719 23.5191 5.49527
RightHand  -1.45424 3.65305 -18.7697
LeftUpLeg  -15.7204 11.7017 0.728888
LeftLeg  42.4838 4.87286 5.17957
LeftFoot  -5.55355 0.302112 -5.33011
LeftToes  -1.18267e-011 5.39559e-011 -6.19194e-012
122
root  -45.7586 40.9719 -2.91048 -64.0148 -87.0112 59.8041
RightUpLeg  -8.31032 -9.22176 -3.9678
RightLeg  9.74027 -2.22016 4.88794
RightFoot  4.4596 0.824474 -5.71294
RightToes  1.74622e-010 0 -3.6325e-017
Spine  5.51031 -0.407616 5.66709
Spine1  7.98045 0.25182 -1.46631
HEad  -15.0909 -0.957914 -2.26112
LeftShoulder1  9.62831 -13.1202 -50.5574
LeftArm  -4.65524 25.2696 -27.5575
LeftForeArm  25.3253 -14.4832 -5.34554
LeftHand  -0.244104 0.0205437 5.32207
RightShoulder  5.87875 9.1593 40.2705
RightArm  12.4918 -9.32108 33.6206
RightForeArm  -10.4233 23.8269 5.60691
RightHand  -1.51418 3.78319 -19.257
LeftUpLeg  -14.3356 11.8025 0.222825
LeftLeg  32.4565 4.00009 3.0962
LeftFoot  -6.08381 0.296487 -5.63683
LeftToes  -1.18267e-011 5.39559e-011 -6.19194e-012
123
root  -46.3979 41.0496 -2.94664 -69.4689 -87.099 65.2044
RightUpLeg  -7.18679 -9.12018 -3.96086
RightLeg  9.72608 -2.05616 4.75854
RightFoot  3.5224 0.796481 -5.91211
RightToes  1.74622e-010 0 -3.6325e-017
Spine  5.23915 -0.311149 5.76146
Spine1  8.55591 0.370116 -1.59284
HEad  -15.5644 -0.595686 -2.2774
LeftShoulder1  9.49751 -12.9789 -50.2991
LeftArm  -4.95104 26.2599 -28.1365
LeftForeArm  25.2821 -14.578 -5.26546
LeftHand  -0.244104 0.0205437 5.32207
RightShoulder  5.98111 9.26293 40.672
RightArm  13.5783 -9.25942 33.3603
RightForeArm  -11.0462 23.6314 5.60341
RightHand  -1.4956 3.63122 -19.3321
LeftUpLeg  -12.2796 11.095 0.218901
LeftLeg  23.1355 2.51129 1.53202
LeftFoot  -4.2901 0.411612 -6.24794
LeftToes  -1.18267e-011 5.39559e-011 -6.19194e-012
124
root  -47.0124 41.0908 -2.93587 -72.2808 -87.646 67.8076
RightUpLeg  -6.00761 -8.95256 -3.58366
RightLeg  9.80528 -1.83467 4.76881
RightFoot  2.72678 0.770301 -6.08099
RightToes  1.74622e-010 0 -3.6325e-017
Spine  4.92892 -0.346934 6.52712
Spine1  8.88429 0.445238 -1.98739
HEad  -15.1492 -0.215692 -2.45805
LeftShoulder1  9.23987 -12.6956 -49.7934
LeftArm  -5.26407 26.935 -28.7653
LeftForeArm  25.4236 -14.6262 -5.19367
LeftHand  -0.244104 0.0205437 5.32207
RightShoulder  6.06003 9.24365 41.3212
RightArm  14.48 -9.76242 32.9977
RightForeArm  -10.3488 23.3187 5.53094
RightHand  -1.39314 3.21938 -18.8739
LeftUpLeg  -9.90194 10.511 0.786854
LeftLeg  15.8157 1.31779 0.55311
LeftFoot  -1.23543 0.520448 -5.84374
LeftToes  -1.18267e-011 5.39559e-011 -6.19194e-012
125
root  -47.6064 41.1184 -2.88827 -78.3134 -88.5759 73.5792
RightUpLeg  -4.6227 -8.73039 -2.96553
RightLeg  9.56497 -1.59645 4.96799
RightFoot  1.91634 0.718435 -6.05822
RightToes  1.74622e-010 0 -3.6325e-017
Spine  4.41362 -0.473127 7.5346
Spine1  9.26838 0.402023 -2.3115
HEad  -14.2105 0.376221 -3.00385
LeftShoulder1  9.03981 -12.4143 -49.5762
LeftArm  -6.05941 27.5209 -29.2019
LeftForeArm  25.3108 -14.9323 -4.97367
LeftHand  -0.244104 0.0205437 5.32207
RightShoulder  6.13563 9.21976 41.9594
RightArm  14.9882 -10.661 32.5599
RightForeArm  -9.63166 22.9096 5.48027
RightHand  -1.32568 2.97658 -18.4889
LeftUpLeg  -7.46755 9.07272 2.01885
LeftLeg  11.1218 1.95152 -0.451296
LeftFoot  0.973274 0.413964 -3.88348
LeftToes  -1.18267e-011 5.39559e-011 -6.19194e-012
126
root  -48.1653 41.1491 -2.83477 -87.2883 -89.4132 82.246
RightUpLeg  -3.04883 -8.4483 -2.39125
RightLeg  8.98584 -1.62788 5.08412
RightFoot  1.1791 0.662233 -5.95391
RightToes  1.74622e-010 0 -3.6325e-017
Spine  3.65098 -0.703991 7.79131
Spine1  10.007 0.00227646 -1.83683
HEad  -13.453 1.3886 -3.78014
LeftShoulder1  8.97301 -12.2182 -49.8207
LeftArm  -7.36123 27.8498 -29.3617
LeftForeArm  24.7274 -15.4551 -4.64509
LeftHand  -0.244104 0.0205437 5.32207
RightShoulder  6.3459 9.45993 42.6348
RightArm  14.9858 -11.6994 31.7604
RightForeArm  -9.63421 22.1638 5.53847
RightHand  -1.35047 3.14058 -18.4754
LeftUpLeg  -5.32389 7.2749 3.08141
LeftLeg  8.83141 3.37018 -1.11654
LeftFoot  1.35153 0.160301 -1.49473
LeftToes  -1.18267e-011 5.39559e-011 -6.19194e-012
127
root  -48.6691 41.2041 -2.81076 -78.7096 -89.7143 73.2804
RightUpLeg  -1.47537 -8.15749 -2.13888
RightLeg  8.36588 -1.94818 4.89923
RightFoot  0.700473 0.628243 -5.90147
RightToes  1.74622e-010 0 -3.6325e-017
Spine  3.0286 -0.946767 6.95949
Spine1  10.6229 -0.600328 -0.718969
HEad  -12.8969 2.37362 -4.25989
LeftShoulder1  8.91035 -12.0558 -49.9869
LeftArm  -8.5131 27.4197 -29.0888
LeftForeArm  24.265 -15.471 -4.47848
LeftHand  -0.244104 0.0205437 5.32207
RightShoulder  6.6864 9.85455 43.6557
RightArm  13.512 -12.9833 30.4293
RightForeArm  -8.83727 20.8958 5.75741
RightHand  -1.40879 3.5431 -18.4186
LeftUpLeg  -3.52399 6.19739 3.45031
LeftLeg  7.82898 4.21294 -1.22178
LeftFoot  0.818681 0.00966855 -0.141948
LeftToes  -1.18267e-011 5.39559e-011 -6.19194e-012
